

<svg width="387" height="351" viewBox="0 0 387 351" fill="none" xmlns="http://www.w3.org/2000/svg">
<g clip-path="url(#clip0_14597_9258)">
<mask id="mask0_14597_9258" style="mask-type:luminance" maskUnits="userSpaceOnUse" x="-1" y="0" width="384" height="335">
<path d="M382.87 0.445312H-0.5V334.605H382.87V0.445312Z" fill="white"/>
</mask>
<g mask="url(#mask0_14597_9258)">
<path d="M305.353 305.304C365.609 270.515 392.839 204.874 366.175 158.69C339.511 112.506 269.049 103.268 208.793 138.057C148.538 172.845 121.307 238.486 147.971 284.67C174.636 330.854 245.098 340.092 305.353 305.304Z" fill="url(#paint0_radial_14597_9258)"/>
<path d="M266.5 212.656L335.62 252.226C340.39 254.956 340.4 261.826 335.65 264.576L189.34 348.956" stroke="#37E4ED" stroke-width="0.84" stroke-miterlimit="10"/>
<path d="M-24.9004 351.773L121.41 267.393C126.16 264.643 126.15 257.773 121.38 255.043L63.6896 221.803C58.9396 219.053 58.9496 212.183 63.7196 209.453L129.45 171.823C131.55 170.623 132.84 168.393 132.84 165.973V147.273" stroke="#37E4ED" stroke-width="0.84" stroke-miterlimit="10"/>
<path d="M283.14 237.594L352.26 277.164C357.03 279.894 357.04 286.764 352.29 289.514L205.98 373.894" stroke="#37E4ED" stroke-width="0.84" stroke-miterlimit="10"/>
<path d="M314 132.433L188.63 60.6633C188.18 60.4033 187.69 60.4133 187.27 60.5833C187.19 60.6233 187.11 60.6533 187.03 60.7033L184.73 61.8433C184.23 62.0933 183.85 62.5933 183.85 63.2333V146.013C183.85 146.573 184.15 147.083 184.63 147.363L310 219.133C310.46 219.393 310.95 219.383 311.38 219.203L311.48 219.153C311.51 219.133 311.55 219.123 311.58 219.103L313.49 218.093C314.18 217.953 314.76 217.363 314.76 216.563V133.783C314.76 133.223 314.46 132.713 313.98 132.433H314Z" fill="url(#paint1_linear_14597_9258)"/>
<path d="M310 219.141L184.63 147.371C184.15 147.091 183.85 146.581 183.85 146.021V63.2409C183.85 62.0409 185.14 61.2909 186.18 61.8909L311.55 133.661C312.03 133.941 312.33 134.451 312.33 135.011V217.791C312.33 218.991 311.04 219.741 310 219.141Z" fill="#1C7A7D"/>
<path d="M188.51 144.209V68.6094L307.66 136.809V212.419L188.51 144.209Z" fill="url(#paint2_linear_14597_9258)"/>
<path d="M311.069 223.841L311.049 221.011C311.129 220.421 310.879 219.791 310.289 219.451L184.929 147.691C184.449 147.411 183.859 147.421 183.379 147.691L110.559 189.851C110.009 190.171 109.759 190.741 109.799 191.301H109.789L109.809 194.041C109.729 194.631 109.979 195.261 110.569 195.601L235.149 266.911C236.109 267.461 237.299 267.461 238.259 266.911L310.309 225.201C310.789 224.921 311.039 224.441 311.069 223.961H311.079V223.861C311.079 223.861 311.079 223.861 311.079 223.851L311.069 223.841Z" fill="url(#paint3_linear_14597_9258)"/>
<path d="M235.139 263.88L110.559 192.57C109.519 191.97 109.509 190.47 110.559 189.87L183.379 147.71C183.859 147.43 184.449 147.43 184.929 147.71L310.289 219.47C311.329 220.07 311.339 221.57 310.289 222.17L238.239 263.88C237.279 264.44 236.099 264.44 235.129 263.88H235.139Z" fill="url(#paint4_linear_14597_9258)"/>
<g style="mix-blend-mode:soft-light">
<path d="M191.369 166.146L183.269 161.516L179.609 163.686L187.709 168.316L191.369 166.146Z" fill="white"/>
<path d="M203.299 172.966L195.199 168.336L191.539 170.506L199.639 175.136L203.299 172.966Z" fill="white"/>
<path d="M215.219 179.786L207.129 175.156L203.469 177.326L211.569 181.956L215.219 179.786Z" fill="white"/>
<path d="M227.148 186.607L219.048 181.977L215.398 184.147L223.488 188.777L227.148 186.607Z" fill="white"/>
<path d="M239.078 193.427L230.978 188.797L227.318 190.967L235.418 195.597L239.078 193.427Z" fill="white"/>
<path d="M250.998 200.247L242.908 195.617L239.248 197.787L247.348 202.417L250.998 200.247Z" fill="white"/>
<path d="M262.928 207.067L254.828 202.438L251.178 204.607L259.278 209.238L262.928 207.067Z" fill="white"/>
<path d="M274.859 213.888L266.759 209.258L263.109 211.428L271.209 216.058L274.859 213.888Z" fill="white"/>
<path d="M286.789 220.708L278.689 216.078L275.029 218.248L283.129 222.878L286.789 220.708Z" fill="white"/>
<path d="M211.08 223.637L179.57 205.617L167.6 212.717L199.11 230.737L211.08 223.637Z" fill="white"/>
<path d="M180.949 172.317L172.849 167.688L169.199 169.857L177.299 174.487L180.949 172.317Z" fill="white"/>
<path d="M192.879 179.138L184.779 174.508L181.129 176.678L189.229 181.308L192.879 179.138Z" fill="white"/>
<path d="M204.809 185.958L196.709 181.328L193.059 183.498L201.159 188.128L204.809 185.958Z" fill="white"/>
<path d="M216.728 192.778L208.638 188.148L204.988 190.318L213.078 194.938L216.728 192.778Z" fill="white"/>
<path d="M228.658 199.599L220.558 194.969L216.908 197.129L225.008 201.769L228.658 199.599Z" fill="white"/>
<path d="M240.588 206.419L232.488 201.789L228.838 203.949L236.938 208.589L240.588 206.419Z" fill="white"/>
<path d="M252.52 213.239L244.42 208.609L240.77 210.779L248.86 215.409L252.52 213.239Z" fill="white"/>
<path d="M264.439 220.052L256.339 215.422L252.689 217.592L260.789 222.222L264.439 220.052Z" fill="white"/>
<path d="M276.369 226.872L268.269 222.242L264.619 224.412L272.719 229.042L276.369 226.872Z" fill="white"/>
<path d="M176.129 175.177L168.029 170.547L164.369 172.717L172.469 177.347L176.129 175.177Z" fill="white"/>
<path d="M188.059 181.997L179.959 177.367L176.299 179.537L184.399 184.167L188.059 181.997Z" fill="white"/>
<path d="M199.979 188.817L191.889 184.188L188.229 186.357L196.328 190.987L199.979 188.817Z" fill="white"/>
<path d="M211.908 195.638L203.808 191.008L200.158 193.178L208.248 197.798L211.908 195.638Z" fill="white"/>
<path d="M223.838 202.458L215.738 197.828L212.078 199.988L220.178 204.618L223.838 202.458Z" fill="white"/>
<path d="M235.758 209.278L227.668 204.648L224.008 206.808L232.108 211.448L235.758 209.278Z" fill="white"/>
<path d="M247.689 216.099L239.589 211.469L235.939 213.639L244.039 218.269L247.689 216.099Z" fill="white"/>
<path d="M259.619 222.919L251.519 218.289L247.869 220.459L255.969 225.089L259.619 222.919Z" fill="white"/>
<path d="M271.549 229.739L263.449 225.109L259.789 227.279L267.889 231.909L271.549 229.739Z" fill="white"/>
<path d="M171.299 178.036L163.199 173.406L159.549 175.566L167.639 180.206L171.299 178.036Z" fill="white"/>
<path d="M183.229 184.857L175.129 180.227L171.469 182.397L179.569 187.027L183.229 184.857Z" fill="white"/>
<path d="M195.158 191.677L187.058 187.047L183.398 189.217L191.498 193.847L195.158 191.677Z" fill="white"/>
<path d="M207.078 198.497L198.988 193.867L195.328 196.037L203.418 200.657L207.078 198.497Z" fill="white"/>
<path d="M219.008 205.317L210.908 200.688L207.248 202.847L215.348 207.477L219.008 205.317Z" fill="white"/>
<path d="M230.938 212.138L222.838 207.508L219.178 209.668L227.278 214.308L230.938 212.138Z" fill="white"/>
<path d="M242.869 218.958L234.769 214.328L231.109 216.488L239.209 221.128L242.869 218.958Z" fill="white"/>
<path d="M254.789 225.778L246.689 221.148L243.039 223.318L251.139 227.948L254.789 225.778Z" fill="white"/>
<path d="M266.719 232.599L258.619 227.969L254.969 230.139L263.069 234.769L266.719 232.599Z" fill="white"/>
<path d="M166.469 180.896L158.369 176.266L154.719 178.426L162.819 183.066L166.469 180.896Z" fill="white"/>
<path d="M178.398 187.716L170.298 183.086L166.648 185.256L174.748 189.886L178.398 187.716Z" fill="white"/>
<path d="M190.328 194.536L182.228 189.906L178.568 192.076L186.668 196.706L190.328 194.536Z" fill="white"/>
<path d="M202.248 201.357L194.158 196.727L190.498 198.897L198.598 203.517L202.248 201.357Z" fill="white"/>
<path d="M214.178 208.177L206.078 203.547L202.428 205.707L210.528 210.337L214.178 208.177Z" fill="white"/>
<path d="M226.11 214.997L218.01 210.367L214.35 212.527L222.45 217.167L226.11 214.997Z" fill="white"/>
<path d="M238.039 221.818L229.939 217.188L226.279 219.348L234.379 223.988L238.039 221.818Z" fill="white"/>
<path d="M249.969 228.638L241.869 224.008L238.209 226.178L246.309 230.808L249.969 228.638Z" fill="white"/>
<path d="M261.889 235.458L253.799 230.828L250.139 232.998L258.239 237.628L261.889 235.458Z" fill="white"/>
<path d="M161.649 183.755L153.549 179.125L149.889 181.285L157.989 185.925L161.649 183.755Z" fill="white"/>
<path d="M173.568 190.575L165.468 185.945L161.818 188.115L169.918 192.745L173.568 190.575Z" fill="white"/>
<path d="M185.498 197.396L177.398 192.766L173.748 194.936L181.848 199.566L185.498 197.396Z" fill="white"/>
<path d="M197.428 204.216L189.328 199.586L185.678 201.756L193.768 206.376L197.428 204.216Z" fill="white"/>
<path d="M209.35 211.036L201.25 206.406L197.6 208.566L205.7 213.196L209.35 211.036Z" fill="white"/>
<path d="M221.279 217.857L213.179 213.227L209.529 215.387L217.629 220.017L221.279 217.857Z" fill="white"/>
<path d="M233.209 224.677L225.109 220.047L221.459 222.207L229.549 226.847L233.209 224.677Z" fill="white"/>
<path d="M245.139 231.497L237.039 226.867L233.379 229.037L241.479 233.667L245.139 231.497Z" fill="white"/>
<path d="M257.069 238.318L248.969 233.688L245.309 235.858L253.409 240.488L257.069 238.318Z" fill="white"/>
</g>
<g style="mix-blend-mode:hard-light">
<mask id="path-66-inside-1_14597_9258" fill="white">
<path d="M159.33 76.6256L175.69 66.9756L192.09 57.4156L224.9 38.2956L257.82 19.3656L274.28 9.89563L290.79 0.515625L274.43 10.1656L258.03 19.7256L225.22 38.8456L192.3 57.7856L175.84 67.2456L159.33 76.6256Z"/>
</mask>
<path d="M159.33 76.6256L158.822 75.7643L159.824 77.4951L159.33 76.6256ZM175.69 66.9756L175.186 66.1117L175.182 66.1143L175.69 66.9756ZM192.09 57.4156L191.587 56.5516L191.586 56.5517L192.09 57.4156ZM224.9 38.2956L224.402 37.4287L224.397 37.4316L224.9 38.2956ZM257.82 19.3656L258.319 20.2325L258.319 20.2324L257.82 19.3656ZM274.28 9.89563L273.786 9.02614L273.781 9.02884L274.28 9.89563ZM290.79 0.515625L291.298 1.37695L290.296 -0.353847L290.79 0.515625ZM274.43 10.1656L274.934 11.0296L274.938 11.027L274.43 10.1656ZM258.03 19.7256L258.534 20.5896L258.534 20.5896L258.03 19.7256ZM225.22 38.8456L225.719 39.7124L225.724 39.7096L225.22 38.8456ZM192.3 57.7856L192.798 58.6526L192.799 58.6524L192.3 57.7856ZM175.84 67.2456L176.334 68.1151L176.338 68.1126L175.84 67.2456ZM159.33 76.6256L159.838 77.4869L176.198 67.837L175.69 66.9756L175.182 66.1143L158.822 75.7643L159.33 76.6256ZM175.69 66.9756L176.194 67.8396L192.594 58.2796L192.09 57.4156L191.586 56.5517L175.186 66.1117L175.69 66.9756ZM192.09 57.4156L192.594 58.2796L225.404 39.1596L224.9 38.2956L224.397 37.4316L191.587 56.5516L192.09 57.4156ZM224.9 38.2956L225.399 39.1625L258.319 20.2325L257.82 19.3656L257.322 18.4987L224.402 37.4287L224.9 38.2956ZM257.82 19.3656L258.319 20.2324L274.779 10.7624L274.28 9.89563L273.781 9.02884L257.321 18.4988L257.82 19.3656ZM274.28 9.89563L274.774 10.7651L291.284 1.3851L290.79 0.515625L290.296 -0.353847L273.786 9.02615L274.28 9.89563ZM290.79 0.515625L290.282 -0.3457L273.922 9.3043L274.43 10.1656L274.938 11.027L291.298 1.37695L290.79 0.515625ZM274.43 10.1656L273.926 9.30169L257.526 18.8617L258.03 19.7256L258.534 20.5896L274.934 11.0296L274.43 10.1656ZM258.03 19.7256L257.527 18.8616L224.717 37.9816L225.22 38.8456L225.724 39.7096L258.534 20.5896L258.03 19.7256ZM225.22 38.8456L224.721 37.9788L191.801 56.9188L192.3 57.7856L192.799 58.6524L225.719 39.7124L225.22 38.8456ZM192.3 57.7856L191.802 56.9186L175.342 66.3786L175.84 67.2456L176.338 68.1126L192.798 58.6526L192.3 57.7856ZM175.84 67.2456L175.346 66.3762L158.836 75.7561L159.33 76.6256L159.824 77.4951L176.334 68.1151L175.84 67.2456Z" fill="#37E4ED" mask="url(#path-66-inside-1_14597_9258)"/>
</g>
<g style="mix-blend-mode:hard-light">
<mask id="path-68-inside-2_14597_9258" fill="white">
<path d="M122.9 22.6172L139.41 31.9972L155.86 41.4672L188.78 60.3972L221.59 79.5172L237.99 89.0772L254.35 98.7272L237.84 89.3472L221.38 79.8872L188.46 60.9472L155.65 41.8272L139.25 32.2672L122.9 22.6172Z"/>
</mask>
<path d="M122.9 22.6172L139.41 31.9972L155.86 41.4672L188.78 60.3972L221.59 79.5172L237.99 89.0772L254.35 98.7272L237.84 89.3472L221.38 79.8872L188.46 60.9472L155.65 41.8272L139.25 32.2672L122.9 22.6172Z" fill="url(#paint5_linear_14597_9258)"/>
<path d="M122.9 22.6172L123.394 21.7477L122.392 23.4784L122.9 22.6172ZM139.41 31.9972L139.909 31.1305L139.904 31.1277L139.41 31.9972ZM155.86 41.4672L155.361 42.3338L155.362 42.3341L155.86 41.4672ZM188.78 60.3972L189.284 59.5332L189.279 59.5303L188.78 60.3972ZM221.59 79.5172L222.094 78.6533L222.094 78.6532L221.59 79.5172ZM237.99 89.0772L238.498 88.2159L238.494 88.2133L237.99 89.0772ZM254.35 98.7272L253.856 99.5967L254.858 97.8659L254.35 98.7272ZM237.84 89.3472L237.342 90.2142L237.346 90.2167L237.84 89.3472ZM221.38 79.8872L220.882 80.754L220.882 80.7542L221.38 79.8872ZM188.46 60.9472L187.957 61.8112L187.962 61.814L188.46 60.9472ZM155.65 41.8272L155.147 42.6911L155.147 42.6912L155.65 41.8272ZM139.25 32.2672L138.742 33.1284L138.747 33.1311L139.25 32.2672ZM122.9 22.6172L122.406 23.4867L138.916 32.8667L139.41 31.9972L139.904 31.1277L123.394 21.7477L122.9 22.6172ZM139.41 31.9972L138.911 32.8638L155.361 42.3338L155.86 41.4672L156.359 40.6005L139.909 31.1305L139.41 31.9972ZM155.86 41.4672L155.362 42.3341L188.282 61.2641L188.78 60.3972L189.279 59.5303L156.359 40.6003L155.86 41.4672ZM188.78 60.3972L188.277 61.2612L221.087 80.3812L221.59 79.5172L222.094 78.6532L189.284 59.5332L188.78 60.3972ZM221.59 79.5172L221.087 80.3811L237.487 89.9411L237.99 89.0772L238.494 88.2133L222.094 78.6533L221.59 79.5172ZM237.99 89.0772L237.482 89.9385L253.842 99.5885L254.35 98.7272L254.858 97.8659L238.498 88.2159L237.99 89.0772ZM254.35 98.7272L254.844 97.8577L238.334 88.4777L237.84 89.3472L237.346 90.2167L253.856 99.5967L254.35 98.7272ZM237.84 89.3472L238.339 88.4802L221.879 79.0202L221.38 79.8872L220.882 80.7542L237.342 90.2142L237.84 89.3472ZM221.38 79.8872L221.879 79.0204L188.959 60.0804L188.46 60.9472L187.962 61.814L220.882 80.754L221.38 79.8872ZM188.46 60.9472L188.964 60.0832L156.154 40.9632L155.65 41.8272L155.147 42.6912L187.957 61.8112L188.46 60.9472ZM155.65 41.8272L156.154 40.9633L139.754 31.4033L139.25 32.2672L138.747 33.1311L155.147 42.6911L155.65 41.8272ZM139.25 32.2672L139.759 31.406L123.409 21.756L122.9 22.6172L122.392 23.4784L138.742 33.1284L139.25 32.2672Z" fill="#37E4ED" mask="url(#path-68-inside-2_14597_9258)"/>
</g>
<path d="M146.23 73.5762L143.5 71.8762C142.99 71.5262 142.3 71.4462 141.69 71.7962L111.33 89.1762C110.8 89.4762 110.48 90.0362 110.48 90.6462V162.356C110.48 162.946 110.78 163.436 111.21 163.736L111.29 163.796C111.31 163.806 111.33 163.826 111.35 163.836L114.18 165.596C114.68 165.896 115.32 165.946 115.89 165.616L146.25 148.236C146.78 147.936 147.1 147.376 147.1 146.766V75.0562C147.1 74.3962 146.73 73.8562 146.22 73.5762H146.23Z" fill="url(#paint6_linear_14597_9258)"/>
<path d="M113.371 92.4329V164.143C113.371 165.443 114.771 166.253 115.901 165.613L146.261 148.233C146.791 147.933 147.111 147.373 147.111 146.763V75.0529C147.111 73.7529 145.711 72.9429 144.581 73.5829L114.221 90.9629C113.691 91.2629 113.371 91.8229 113.371 92.4329Z" fill="#186C6D"/>
<path d="M116.76 96.6544L142.05 82.1844C143.18 81.5444 144.58 82.3544 144.58 83.6544V141.074C144.58 141.684 144.26 142.244 143.73 142.544L118.44 157.014C117.31 157.654 115.91 156.844 115.91 155.544V98.1244C115.91 97.5144 116.23 96.9544 116.76 96.6544Z" fill="white"/>
<path d="M253 148.548V71.2578L321.54 110.498V187.788L253 148.548Z" fill="url(#paint7_linear_14597_9258)"/>
<path d="M321.54 117.118V110.498L253 71.2578V77.8778L321.54 117.118Z" fill="url(#paint8_linear_14597_9258)"/>
<path d="M247.26 169.966V137.946L164.84 90.7656V122.786L247.26 169.966Z" fill="url(#paint9_linear_14597_9258)"/>
<path d="M247.26 144.046V137.946L164.84 90.7656V96.8756L247.26 144.046Z" fill="url(#paint10_linear_14597_9258)"/>
<path d="M334.22 183.093L278.82 151.383V183.403L334.22 215.113V183.093Z" fill="url(#paint11_linear_14597_9258)"/>
<path d="M334.22 183.093L278.82 151.383V157.483L334.22 189.193V183.093Z" fill="url(#paint12_linear_14597_9258)"/>
<g style="mix-blend-mode:hard-light">
<mask id="path-79-inside-3_14597_9258" fill="white">
<path d="M255.82 72.4375L272.33 81.8175L288.79 91.2875L321.7 110.218L354.51 129.338L370.92 138.897L387.27 148.548L370.76 139.168L354.3 129.698L321.39 110.768L288.58 91.6475L272.17 82.0875L255.82 72.4375Z"/>
</mask>
<path d="M255.82 72.4375L256.314 71.568L255.312 73.2987L255.82 72.4375ZM272.33 81.8175L272.829 80.9507L272.824 80.948L272.33 81.8175ZM288.79 91.2875L288.292 92.1543L288.292 92.1543L288.79 91.2875ZM321.7 110.218L322.204 109.353L322.199 109.351L321.7 110.218ZM354.51 129.338L354.007 130.201L354.007 130.202L354.51 129.338ZM370.92 138.897L371.429 138.036L371.424 138.033L370.92 138.897ZM387.27 148.548L386.776 149.417L387.779 147.686L387.27 148.548ZM370.76 139.168L370.262 140.034L370.266 140.037L370.76 139.168ZM354.3 129.698L354.799 128.831L354.799 128.831L354.3 129.698ZM321.39 110.768L320.887 111.632L320.892 111.634L321.39 110.768ZM288.58 91.6475L289.084 90.7835L289.084 90.7834L288.58 91.6475ZM272.17 82.0875L271.662 82.9487L271.667 82.9516L272.17 82.0875ZM255.82 72.4375L255.326 73.307L271.836 82.687L272.33 81.8175L272.824 80.948L256.314 71.568L255.82 72.4375ZM272.33 81.8175L271.832 82.6843L288.292 92.1543L288.79 91.2875L289.289 90.4207L272.829 80.9507L272.33 81.8175ZM288.79 91.2875L288.292 92.1543L321.202 111.084L321.7 110.218L322.199 109.351L289.289 90.4207L288.79 91.2875ZM321.7 110.218L321.197 111.082L354.007 130.201L354.51 129.338L355.014 128.474L322.204 109.354L321.7 110.218ZM354.51 129.338L354.007 130.202L370.417 139.762L370.92 138.897L371.424 138.033L355.014 128.473L354.51 129.338ZM370.92 138.897L370.412 139.759L386.762 149.409L387.27 148.548L387.779 147.686L371.429 138.036L370.92 138.897ZM387.27 148.548L387.764 147.678L371.254 138.298L370.76 139.168L370.266 140.037L386.776 149.417L387.27 148.548ZM370.76 139.168L371.259 138.301L354.799 128.831L354.3 129.698L353.802 130.564L370.262 140.034L370.76 139.168ZM354.3 129.698L354.799 128.831L321.889 109.901L321.39 110.768L320.892 111.634L353.802 130.564L354.3 129.698ZM321.39 110.768L321.894 109.904L289.084 90.7835L288.58 91.6475L288.077 92.5115L320.887 111.632L321.39 110.768ZM288.58 91.6475L289.084 90.7834L272.674 81.2234L272.17 82.0875L271.667 82.9516L288.077 92.5116L288.58 91.6475ZM272.17 82.0875L272.679 81.2263L256.329 71.5763L255.82 72.4375L255.312 73.2987L271.662 82.9487L272.17 82.0875Z" fill="#37E4ED" mask="url(#path-79-inside-3_14597_9258)"/>
</g>
<g style="mix-blend-mode:hard-light">
<mask id="path-81-inside-4_14597_9258" fill="white">
<path d="M255.82 148.548L272.17 138.897L288.58 129.338L321.39 110.218L354.3 91.2875L370.76 81.8175L387.27 72.4375L370.92 82.0875L354.51 91.6475L321.7 110.768L288.79 129.698L272.33 139.168L255.82 148.548Z"/>
</mask>
<path d="M255.82 148.548L255.312 147.686L256.314 149.417L255.82 148.548ZM272.17 138.897L271.667 138.033L271.662 138.036L272.17 138.897ZM288.58 129.338L289.084 130.202L289.084 130.201L288.58 129.338ZM321.39 110.218L320.892 109.351L320.887 109.354L321.39 110.218ZM354.3 91.2875L354.799 92.1543L354.799 92.1543L354.3 91.2875ZM370.76 81.8175L370.266 80.948L370.262 80.9507L370.76 81.8175ZM387.27 72.4375L387.779 73.2987L386.776 71.568L387.27 72.4375ZM370.92 82.0875L371.424 82.9516L371.429 82.9487L370.92 82.0875ZM354.51 91.6475L354.007 90.7834L354.007 90.7835L354.51 91.6475ZM321.7 110.768L322.199 111.634L322.204 111.632L321.7 110.768ZM288.79 129.698L288.292 128.831L288.292 128.831L288.79 129.698ZM272.33 139.168L272.824 140.037L272.829 140.034L272.33 139.168ZM255.82 148.548L256.329 149.409L272.679 139.759L272.17 138.897L271.662 138.036L255.312 147.686L255.82 148.548ZM272.17 138.897L272.674 139.762L289.084 130.202L288.58 129.338L288.077 128.473L271.667 138.033L272.17 138.897ZM288.58 129.338L289.084 130.201L321.894 111.082L321.39 110.218L320.887 109.354L288.077 128.474L288.58 129.338ZM321.39 110.218L321.889 111.084L354.799 92.1543L354.3 91.2875L353.802 90.4207L320.892 109.351L321.39 110.218ZM354.3 91.2875L354.799 92.1543L371.259 82.6843L370.76 81.8175L370.262 80.9507L353.802 90.4207L354.3 91.2875ZM370.76 81.8175L371.254 82.687L387.764 73.307L387.27 72.4375L386.776 71.568L370.266 80.948L370.76 81.8175ZM387.27 72.4375L386.762 71.5763L370.412 81.2263L370.92 82.0875L371.429 82.9487L387.779 73.2987L387.27 72.4375ZM370.92 82.0875L370.417 81.2234L354.007 90.7834L354.51 91.6475L355.014 92.5116L371.424 82.9516L370.92 82.0875ZM354.51 91.6475L354.007 90.7835L321.197 109.904L321.7 110.768L322.204 111.632L355.014 92.5115L354.51 91.6475ZM321.7 110.768L321.202 109.901L288.292 128.831L288.79 129.698L289.289 130.564L322.199 111.634L321.7 110.768ZM288.79 129.698L288.292 128.831L271.832 138.301L272.33 139.168L272.829 140.034L289.289 130.564L288.79 129.698ZM272.33 139.168L271.836 138.298L255.326 147.678L255.82 148.548L256.314 149.417L272.824 140.037L272.33 139.168Z" fill="#37E4ED" mask="url(#path-81-inside-4_14597_9258)"/>
</g>
<g style="mix-blend-mode:hard-light">
<mask id="path-83-inside-5_14597_9258" fill="white">
<path d="M268.49 220.579L284.84 210.929L301.25 201.369L334.06 182.249L366.97 163.319L383.43 153.849L399.94 144.469L383.59 154.119L367.18 163.679L334.37 182.799L301.46 201.739L285 211.199L268.49 220.579Z"/>
</mask>
<path d="M268.49 220.579L267.982 219.718L268.984 221.448L268.49 220.579ZM284.84 210.929L284.337 210.065L284.332 210.068L284.84 210.929ZM301.25 201.369L301.754 202.233L301.754 202.233L301.25 201.369ZM334.06 182.249L333.562 181.382L333.557 181.385L334.06 182.249ZM366.97 163.319L367.469 164.186L367.469 164.186L366.97 163.319ZM383.43 153.849L382.936 152.979L382.932 152.982L383.43 153.849ZM399.94 144.469L400.449 145.33L399.446 143.599L399.94 144.469ZM383.59 154.119L384.094 154.983L384.099 154.98L383.59 154.119ZM367.18 163.679L366.677 162.815L366.677 162.815L367.18 163.679ZM334.37 182.799L334.869 183.665L334.874 183.663L334.37 182.799ZM301.46 201.739L301.959 202.606L301.959 202.605L301.46 201.739ZM285 211.199L285.494 212.068L285.499 212.066L285 211.199ZM268.49 220.579L268.999 221.44L285.349 211.79L284.84 210.929L284.332 210.068L267.982 219.718L268.49 220.579ZM284.84 210.929L285.344 211.793L301.754 202.233L301.25 201.369L300.747 200.505L284.337 210.065L284.84 210.929ZM301.25 201.369L301.754 202.233L334.564 183.113L334.06 182.249L333.557 181.385L300.747 200.505L301.25 201.369ZM334.06 182.249L334.559 183.116L367.469 164.186L366.97 163.319L366.472 162.452L333.562 181.382L334.06 182.249ZM366.97 163.319L367.469 164.186L383.929 154.716L383.43 153.849L382.932 152.982L366.472 162.452L366.97 163.319ZM383.43 153.849L383.924 154.718L400.434 145.338L399.94 144.469L399.446 143.599L382.936 152.979L383.43 153.849ZM399.94 144.469L399.432 143.608L383.082 153.258L383.59 154.119L384.099 154.98L400.449 145.33L399.94 144.469ZM383.59 154.119L383.087 153.255L366.677 162.815L367.18 163.679L367.684 164.543L384.094 154.983L383.59 154.119ZM367.18 163.679L366.677 162.815L333.867 181.935L334.37 182.799L334.874 183.663L367.684 164.543L367.18 163.679ZM334.37 182.799L333.871 181.932L300.961 200.872L301.46 201.739L301.959 202.605L334.869 183.665L334.37 182.799ZM301.46 201.739L300.962 200.872L284.502 210.332L285 211.199L285.499 212.066L301.959 202.606L301.46 201.739ZM285 211.199L284.506 210.329L267.996 219.709L268.49 220.579L268.984 221.448L285.494 212.068L285 211.199Z" fill="#37E4ED" mask="url(#path-83-inside-5_14597_9258)"/>
</g>
<g style="mix-blend-mode:hard-light">
<mask id="path-85-inside-6_14597_9258" fill="white">
<path d="M47.6504 129.548L64.0004 119.897L80.4104 110.338L113.21 91.2175L146.13 72.2775L162.59 62.8175L179.1 53.4375L162.74 63.0875L146.34 72.6475L113.53 91.7675L80.6204 110.698L64.1604 120.168L47.6504 129.548Z"/>
</mask>
<path d="M47.6504 129.548L47.1421 128.686L48.1444 130.417L47.6504 129.548ZM64.0004 119.897L63.497 119.033L63.4921 119.036L64.0004 119.897ZM80.4104 110.338L80.9138 111.202L80.914 111.201L80.4104 110.338ZM113.21 91.2175L112.712 90.3507L112.707 90.3536L113.21 91.2175ZM146.13 72.2775L145.632 71.4105L145.632 71.4107L146.13 72.2775ZM162.59 62.8175L162.096 61.948L162.092 61.9505L162.59 62.8175ZM179.1 53.4375L179.608 54.2988L178.606 52.568L179.1 53.4375ZM162.74 63.0875L163.244 63.9514L163.248 63.9488L162.74 63.0875ZM146.34 72.6475L146.844 73.5115L146.844 73.5114L146.34 72.6475ZM113.53 91.7675L114.029 92.6344L114.034 92.6315L113.53 91.7675ZM80.6204 110.698L80.1218 109.831L80.1217 109.831L80.6204 110.698ZM64.1604 120.168L64.6544 121.037L64.6591 121.034L64.1604 120.168ZM47.6504 129.548L48.1587 130.409L64.5087 120.759L64.0004 119.897L63.4921 119.036L47.1421 128.686L47.6504 129.548ZM64.0004 119.897L64.5038 120.762L80.9138 111.202L80.4104 110.338L79.907 109.473L63.497 119.033L64.0004 119.897ZM80.4104 110.338L80.914 111.201L113.714 92.0814L113.21 91.2175L112.707 90.3536L79.9068 109.474L80.4104 110.338ZM113.21 91.2175L113.709 92.0843L146.629 73.1443L146.13 72.2775L145.632 71.4107L112.712 90.3507L113.21 91.2175ZM146.13 72.2775L146.629 73.1445L163.089 63.6845L162.59 62.8175L162.092 61.9505L145.632 71.4105L146.13 72.2775ZM162.59 62.8175L163.084 63.687L179.594 54.307L179.1 53.4375L178.606 52.568L162.096 61.948L162.59 62.8175ZM179.1 53.4375L178.592 52.5762L162.232 62.2262L162.74 63.0875L163.248 63.9488L179.608 54.2988L179.1 53.4375ZM162.74 63.0875L162.237 62.2236L145.837 71.7836L146.34 72.6475L146.844 73.5114L163.244 63.9514L162.74 63.0875ZM146.34 72.6475L145.837 71.7835L113.027 90.9035L113.53 91.7675L114.034 92.6315L146.844 73.5115L146.34 72.6475ZM113.53 91.7675L113.032 90.9007L80.1218 109.831L80.6204 110.698L81.119 111.564L114.029 92.6343L113.53 91.7675ZM80.6204 110.698L80.1217 109.831L63.6617 119.301L64.1604 120.168L64.6591 121.034L81.1191 111.564L80.6204 110.698ZM64.1604 120.168L63.6664 119.298L47.1564 128.678L47.6504 129.548L48.1444 130.417L64.6544 121.037L64.1604 120.168Z" fill="#37E4ED" mask="url(#path-85-inside-6_14597_9258)"/>
</g>
<path d="M7.43945 346.198L160.669 257.348C163.349 255.798 166.649 255.788 169.339 257.328L207.259 279.028" stroke="#37E4ED" stroke-width="0.84" stroke-miterlimit="10"/>
<path d="M250.779 289.803V286.853C250.799 286.593 250.689 286.313 250.429 286.163L194.629 254.223C194.419 254.103 194.149 254.103 193.939 254.223L161.519 272.993C161.269 273.133 161.159 273.393 161.179 273.633V276.543C161.149 276.803 161.249 277.083 161.519 277.233L216.979 308.973C217.409 309.223 217.939 309.213 218.359 308.973L250.429 290.403C250.649 290.283 250.759 290.063 250.769 289.853V289.813L250.779 289.803Z" fill="#0D3A3C"/>
<path d="M216.979 305.933L161.519 274.193C161.059 273.923 161.049 273.263 161.519 272.993L193.939 254.223C194.149 254.103 194.419 254.103 194.629 254.223L250.429 286.163C250.889 286.433 250.899 287.093 250.429 287.363L218.359 305.933C217.929 306.183 217.409 306.183 216.979 305.933Z" fill="url(#paint13_linear_14597_9258)"/>
<path d="M165.559 273.585L194.289 256.945L246.399 286.775L217.669 303.405L165.559 273.585Z" fill="url(#paint14_linear_14597_9258)"/>
<path d="M223.619 137.329V136.029L171.219 106.039V107.339L223.619 137.329Z" fill="#A5FFFF"/>
<path d="M223.619 141.673V140.373L171.219 110.383V111.683L223.619 141.673Z" fill="#A5FFFF"/>
<path d="M223.619 146.019V144.719L171.219 114.719V116.019L223.619 146.019Z" fill="#A5FFFF"/>
<path d="M223.619 150.363V149.062L171.219 119.062V120.363L223.619 150.363Z" fill="#A5FFFF"/>
<path d="M239.409 145.053L230.629 140.023V141.323L239.409 146.353V145.053Z" fill="#A5FFFF"/>
<path d="M239.409 149.397L230.629 144.367V145.667L239.409 150.697V149.397Z" fill="#A5FFFF"/>
<path d="M239.409 153.731L230.629 148.711V150.001L239.409 155.031V153.731Z" fill="#A5FFFF"/>
<path d="M239.409 158.075L230.629 153.055V154.355L239.409 159.375V158.075Z" fill="#A5FFFF"/>
<path d="M119.619 104.457V106.237L140.859 94.0769V92.2969L119.619 104.457Z" fill="url(#paint15_linear_14597_9258)"/>
<path d="M119.619 108.715V110.495L140.859 98.3347V96.5547L119.619 108.715Z" fill="url(#paint16_linear_14597_9258)"/>
<path d="M71.7402 92.7431V124.903L122.9 95.6231V63.4531L71.7402 92.7431Z" fill="url(#paint17_linear_14597_9258)"/>
<path d="M122.9 70.8331V63.4531L71.7402 92.7431V100.113L122.9 70.8331Z" fill="url(#paint18_linear_14597_9258)"/>
<path d="M119.619 112.963V114.743L140.859 102.592V100.812L119.619 112.963Z" fill="url(#paint19_linear_14597_9258)"/>
<path d="M119.619 117.228V119.008L140.859 106.858V105.078L119.619 117.228Z" fill="url(#paint20_linear_14597_9258)"/>
<path d="M119.619 126.902V128.682L140.859 116.522V114.742L119.619 126.902Z" fill="url(#paint21_linear_14597_9258)"/>
<path d="M119.619 131.168V132.938L140.859 120.788V119.008L119.619 131.168Z" fill="url(#paint22_linear_14597_9258)"/>
<path d="M119.619 135.416V137.196L140.859 125.046V123.266L119.619 135.416Z" fill="url(#paint23_linear_14597_9258)"/>
<g style="mix-blend-mode:hard-light">
<path d="M48.5898 54.375L65.0999 63.755L81.5598 73.225L114.47 92.155L147.28 111.275L163.69 120.835L180.04 130.485L163.53 121.105L147.07 111.645L114.16 92.705L81.3499 73.585L64.9398 64.025L48.5898 54.375Z" fill="url(#paint24_linear_14597_9258)"/>
</g>
</g>
</g>
<defs>
<radialGradient id="paint0_radial_14597_9258" cx="0" cy="0" r="1" gradientUnits="userSpaceOnUse" gradientTransform="translate(254.275 216.773) rotate(60) scale(97.0046 125.98)">
<stop stop-color="#30EFFB"/>
<stop offset="1" stop-color="#484648" stop-opacity="0"/>
</radialGradient>
<linearGradient id="paint1_linear_14597_9258" x1="177.92" y1="68.5233" x2="320.7" y2="211.293" gradientUnits="userSpaceOnUse">
<stop stop-color="#62D1FF"/>
<stop offset="1" stop-color="#9CF1FF"/>
</linearGradient>
<linearGradient id="paint2_linear_14597_9258" x1="182.35" y1="74.7694" x2="313.82" y2="206.249" gradientUnits="userSpaceOnUse">
<stop stop-color="#2B9FA6"/>
<stop offset="1" stop-color="#36FBFD"/>
</linearGradient>
<linearGradient id="paint3_linear_14597_9258" x1="151.619" y1="148.721" x2="269.229" y2="266.341" gradientUnits="userSpaceOnUse">
<stop stop-color="#29C8D2"/>
<stop offset="1" stop-color="#29DDE8"/>
</linearGradient>
<linearGradient id="paint4_linear_14597_9258" x1="152.379" y1="147.96" x2="268.469" y2="264.06" gradientUnits="userSpaceOnUse">
<stop stop-color="#9CF1FF"/>
<stop offset="1" stop-color="#62D1FF"/>
</linearGradient>
<linearGradient id="paint5_linear_14597_9258" x1="174.57" y1="74.7272" x2="202.67" y2="46.6172" gradientUnits="userSpaceOnUse">
<stop stop-color="#62D1FF" stop-opacity="0"/>
<stop offset="0.5" stop-color="#9CF1FF"/>
<stop offset="1" stop-color="#62D1FF" stop-opacity="0"/>
</linearGradient>
<linearGradient id="paint6_linear_14597_9258" x1="105.26" y1="95.1662" x2="152.34" y2="142.236" gradientUnits="userSpaceOnUse">
<stop stop-color="#35DEE7"/>
<stop offset="1" stop-color="#25BFC9"/>
</linearGradient>
<linearGradient id="paint7_linear_14597_9258" x1="241" y1="83.2478" x2="333.54" y2="175.788" gradientUnits="userSpaceOnUse">
<stop stop-color="#62D1FF"/>
<stop offset="1" stop-color="#9CF1FF" stop-opacity="0"/>
</linearGradient>
<linearGradient id="paint8_linear_14597_9258" x1="258.67" y1="65.5778" x2="315.87" y2="122.788" gradientUnits="userSpaceOnUse">
<stop stop-color="white"/>
<stop offset="1" stop-color="white" stop-opacity="0"/>
</linearGradient>
<linearGradient id="paint9_linear_14597_9258" x1="165.64" y1="89.9556" x2="246.45" y2="170.766" gradientUnits="userSpaceOnUse">
<stop stop-color="#62D1FF"/>
<stop offset="1" stop-color="#9CF1FF" stop-opacity="0"/>
</linearGradient>
<linearGradient id="paint10_linear_14597_9258" x1="172.12" y1="83.4756" x2="239.97" y2="151.336" gradientUnits="userSpaceOnUse">
<stop stop-color="white"/>
<stop offset="1" stop-color="white" stop-opacity="0"/>
</linearGradient>
<linearGradient id="paint11_linear_14597_9258" x1="276.74" y1="153.463" x2="357.55" y2="234.273" gradientUnits="userSpaceOnUse">
<stop stop-color="#62D1FF"/>
<stop offset="1" stop-color="#9CF1FF" stop-opacity="0"/>
</linearGradient>
<linearGradient id="paint12_linear_14597_9258" x1="283.22" y1="146.983" x2="351.07" y2="214.833" gradientUnits="userSpaceOnUse">
<stop stop-color="white"/>
<stop offset="1" stop-color="white" stop-opacity="0"/>
</linearGradient>
<linearGradient id="paint13_linear_14597_9258" x1="180.139" y1="254.333" x2="231.819" y2="306.013" gradientUnits="userSpaceOnUse">
<stop stop-color="#9CF1FF"/>
<stop offset="1" stop-color="#62D1FF"/>
</linearGradient>
<linearGradient id="paint14_linear_14597_9258" x1="182.469" y1="256.675" x2="229.489" y2="303.685" gradientUnits="userSpaceOnUse">
<stop stop-color="#32AAB3"/>
<stop offset="1" stop-color="#32F8FC"/>
</linearGradient>
<linearGradient id="paint15_linear_14597_9258" x1="127.529" y1="96.5569" x2="132.959" y2="101.987" gradientUnits="userSpaceOnUse">
<stop stop-color="#62D1FF"/>
<stop offset="1" stop-color="#9CF1FF" stop-opacity="0"/>
</linearGradient>
<linearGradient id="paint16_linear_14597_9258" x1="127.529" y1="100.805" x2="132.959" y2="106.235" gradientUnits="userSpaceOnUse">
<stop stop-color="#62D1FF"/>
<stop offset="1" stop-color="#9CF1FF" stop-opacity="0"/>
</linearGradient>
<linearGradient id="paint17_linear_14597_9258" x1="83.8102" y1="80.6731" x2="110.83" y2="107.693" gradientUnits="userSpaceOnUse">
<stop stop-color="#62D1FF"/>
<stop offset="1" stop-color="#9CF1FF" stop-opacity="0"/>
</linearGradient>
<linearGradient id="paint18_linear_14597_9258" x1="90.0002" y1="74.4731" x2="104.63" y2="89.1031" gradientUnits="userSpaceOnUse">
<stop stop-color="white"/>
<stop offset="1" stop-color="white" stop-opacity="0"/>
</linearGradient>
<linearGradient id="paint19_linear_14597_9258" x1="127.529" y1="105.063" x2="132.959" y2="110.492" gradientUnits="userSpaceOnUse">
<stop stop-color="#62D1FF"/>
<stop offset="1" stop-color="#9CF1FF" stop-opacity="0"/>
</linearGradient>
<linearGradient id="paint20_linear_14597_9258" x1="127.529" y1="109.328" x2="132.959" y2="114.758" gradientUnits="userSpaceOnUse">
<stop stop-color="#62D1FF"/>
<stop offset="1" stop-color="#9CF1FF" stop-opacity="0"/>
</linearGradient>
<linearGradient id="paint21_linear_14597_9258" x1="127.529" y1="119.002" x2="132.959" y2="124.422" gradientUnits="userSpaceOnUse">
<stop stop-color="#62D1FF"/>
<stop offset="1" stop-color="#9CF1FF" stop-opacity="0"/>
</linearGradient>
<linearGradient id="paint22_linear_14597_9258" x1="127.529" y1="123.258" x2="132.959" y2="128.688" gradientUnits="userSpaceOnUse">
<stop stop-color="#62D1FF"/>
<stop offset="1" stop-color="#9CF1FF" stop-opacity="0"/>
</linearGradient>
<linearGradient id="paint23_linear_14597_9258" x1="127.529" y1="127.516" x2="132.959" y2="132.946" gradientUnits="userSpaceOnUse">
<stop stop-color="#62D1FF"/>
<stop offset="1" stop-color="#9CF1FF" stop-opacity="0"/>
</linearGradient>
<linearGradient id="paint24_linear_14597_9258" x1="100.26" y1="106.485" x2="128.37" y2="78.375" gradientUnits="userSpaceOnUse">
<stop stop-color="#62D1FF" stop-opacity="0"/>
<stop offset="0.5" stop-color="#9CF1FF"/>
<stop offset="1" stop-color="#62D1FF" stop-opacity="0"/>
</linearGradient>
<clipPath id="clip0_14597_9258">
<rect width="387" height="351" fill="white"/>
</clipPath>
</defs>
</svg>
